<svg id="visual" viewBox="0 0 900 900" width="900" height="900" xmlns="http://www.w3.org/2000/svg" xmlns:xlink="http://www.w3.org/1999/xlink" version="1.1"><path d="M0 37L900 37L900 0L0 0Z" fill="#111116"></path><path d="M0 136L900 136L900 35L0 35Z" fill="#101015"></path><path d="M0 208L900 208L900 134L0 134Z" fill="#0e0e14"></path><path d="M0 262L900 262L900 206L0 206Z" fill="#0d0d13"></path><path d="M0 298L900 298L900 260L0 260Z" fill="#0c0c12"></path><path d="M0 496L900 487L900 296L0 296Z" fill="#0a0a11"></path><path d="M0 568L900 550L900 485L0 494Z" fill="#08080f"></path><path d="M0 622L900 613L900 548L0 566Z" fill="#06060e"></path><path d="M0 658L900 649L900 611L0 620Z" fill="#05050d"></path><path d="M0 820L900 820L900 647L0 656Z" fill="#03030b"></path><path d="M0 865L900 865L900 818L0 818Z" fill="#010109"></path><path d="M0 901L900 901L900 863L0 863Z" fill="#000000"></path></svg>