<svg id="visual" viewBox="0 0 900 900" width="900" height="900" xmlns="http://www.w3.org/2000/svg" xmlns:xlink="http://www.w3.org/1999/xlink" version="1.1"><path d="M0 37L900 37L900 0L0 0Z" fill="#f1f1f1"></path><path d="M0 136L900 136L900 35L0 35Z" fill="#eeeeee"></path><path d="M0 208L900 208L900 134L0 134Z" fill="#eaeaea"></path><path d="M0 262L900 262L900 206L0 206Z" fill="#e7e7e7"></path><path d="M0 298L900 298L900 260L0 260Z" fill="#e4e4e4"></path><path d="M0 496L900 487L900 296L0 296Z" fill="#e1e1e1"></path><path d="M0 568L900 550L900 485L0 494Z" fill="#dddddd"></path><path d="M0 622L900 613L900 548L0 566Z" fill="#dadada"></path><path d="M0 658L900 649L900 611L0 620Z" fill="#d7d7d7"></path><path d="M0 820L900 820L900 647L0 656Z" fill="#d4d4d4"></path><path d="M0 865L900 865L900 818L0 818Z" fill="#d0d0d0"></path><path d="M0 901L900 901L900 863L0 863Z" fill="#cdcdcd"></path></svg>